<svg width="20" height="20" viewBox="0 0 20 20" fill="none" xmlns="http://www.w3.org/2000/svg">
<path d="M12.5 10.0001C12.5 11.3808 11.3807 12.5001 9.99996 12.5001C8.61925 12.5001 7.49996 11.3808 7.49996 10.0001C7.49996 8.61937 8.61925 7.50008 9.99996 7.50008C11.3807 7.50008 12.5 8.61937 12.5 10.0001Z" fill="#FFA451"/>
<path d="M18.2453 9.6274C16.4468 6.03037 13.2526 4.16675 9.99996 4.16675C6.74735 4.16675 3.55312 6.03037 1.7546 9.6274C1.6373 9.86201 1.6373 10.1382 1.7546 10.3728C3.55312 13.9698 6.74735 15.8334 9.99996 15.8334C13.2526 15.8334 16.4468 13.9698 18.2453 10.3728C18.3626 10.1382 18.3626 9.86201 18.2453 9.6274ZM9.99996 14.1667C7.52597 14.1667 4.99834 12.8161 3.44134 10.0001C4.99834 7.18407 7.52597 5.83341 9.99996 5.83341C12.4739 5.83341 15.0016 7.18407 16.5586 10.0001C15.0016 12.8161 12.4739 14.1667 9.99996 14.1667Z" fill="#FFA451"/>
</svg>
