<svg width="137" height="30" viewBox="0 0 137 30" fill="none" xmlns="http://www.w3.org/2000/svg">
<path d="M47.448 22.5246C46.6267 22.6786 45.82 22.7446 45.028 22.7226C44.2433 22.7079 43.5393 22.5722 42.916 22.3156C42.3 22.0516 41.8307 21.6299 41.508 21.0506C41.2147 20.5079 41.0607 19.9579 41.046 19.4006C41.0313 18.8359 41.024 18.1979 41.024 17.4866V7.34457H44.016V17.3106C44.016 17.7726 44.0197 18.1906 44.027 18.5646C44.0417 18.9312 44.1187 19.2246 44.258 19.4446C44.522 19.8626 44.9437 20.0899 45.523 20.1266C46.1023 20.1632 46.744 20.1339 47.448 20.0386V22.5246ZM39 12.9546V10.6446H47.448V12.9546H39Z" fill="#585858"/>
<path d="M53.3954 22.8546C52.5447 22.8546 51.8224 22.6932 51.2284 22.3706C50.6417 22.0406 50.1944 21.6042 49.8864 21.0616C49.5857 20.5116 49.4354 19.9066 49.4354 19.2466C49.4354 18.6966 49.5197 18.1942 49.6884 17.7396C49.8571 17.2849 50.1284 16.8852 50.5024 16.5406C50.8837 16.1886 51.3934 15.8952 52.0314 15.6606C52.4714 15.4992 52.9957 15.3562 53.6044 15.2316C54.2131 15.1069 54.9024 14.9896 55.6724 14.8796C56.4424 14.7622 57.2894 14.6339 58.2134 14.4946L57.1354 15.0886C57.1354 14.3846 56.9667 13.8676 56.6294 13.5376C56.2921 13.2076 55.7274 13.0426 54.9354 13.0426C54.4954 13.0426 54.0371 13.1489 53.5604 13.3616C53.0837 13.5742 52.7501 13.9519 52.5594 14.4946L49.8534 13.6366C50.1541 12.6539 50.7187 11.8546 51.5474 11.2386C52.3761 10.6226 53.5054 10.3146 54.9354 10.3146C55.9841 10.3146 56.9154 10.4759 57.7294 10.7986C58.5434 11.1212 59.1594 11.6786 59.5774 12.4706C59.8121 12.9106 59.9514 13.3506 59.9954 13.7906C60.0394 14.2306 60.0614 14.7219 60.0614 15.2646V22.5246H57.4434V20.0826L57.8174 20.5886C57.2381 21.3879 56.6111 21.9672 55.9364 22.3266C55.2691 22.6786 54.4221 22.8546 53.3954 22.8546ZM54.0334 20.5006C54.5834 20.5006 55.0454 20.4052 55.4194 20.2146C55.8007 20.0166 56.1014 19.7929 56.3214 19.5436C56.5487 19.2942 56.7027 19.0852 56.7834 18.9166C56.9374 18.5939 57.0254 18.2199 57.0474 17.7946C57.0767 17.3619 57.0914 17.0026 57.0914 16.7166L57.9714 16.9366C57.0841 17.0832 56.3654 17.2079 55.8154 17.3106C55.2654 17.4059 54.8217 17.4939 54.4844 17.5746C54.1471 17.6552 53.8501 17.7432 53.5934 17.8386C53.3001 17.9559 53.0617 18.0842 52.8784 18.2236C52.7024 18.3556 52.5704 18.5022 52.4824 18.6636C52.4017 18.8249 52.3614 19.0046 52.3614 19.2026C52.3614 19.4739 52.4274 19.7086 52.5594 19.9066C52.6987 20.0972 52.8931 20.2439 53.1424 20.3466C53.3917 20.4492 53.6887 20.5006 54.0334 20.5006Z" fill="#585858"/>
<path d="M67.5636 22.8546C66.0676 22.8546 64.8576 22.5172 63.9336 21.8426C63.0169 21.1606 62.4596 20.1999 62.2616 18.9606L65.3196 18.4986C65.4442 19.0559 65.7192 19.4922 66.1446 19.8076C66.5772 20.1229 67.1236 20.2806 67.7836 20.2806C68.3262 20.2806 68.7442 20.1779 69.0376 19.9726C69.3309 19.7599 69.4776 19.4666 69.4776 19.0926C69.4776 18.8579 69.4189 18.6709 69.3016 18.5316C69.1842 18.3849 68.9202 18.2419 68.5096 18.1026C68.1062 17.9632 67.4756 17.7799 66.6176 17.5526C65.6496 17.3032 64.8759 17.0246 64.2966 16.7166C63.7172 16.4086 63.2992 16.0419 63.0426 15.6166C62.7859 15.1839 62.6576 14.6632 62.6576 14.0546C62.6576 13.2919 62.8519 12.6319 63.2406 12.0746C63.6292 11.5099 64.1756 11.0772 64.8796 10.7766C65.5909 10.4686 66.4269 10.3146 67.3876 10.3146C68.3189 10.3146 69.1439 10.4576 69.8626 10.7436C70.5812 11.0296 71.1606 11.4366 71.6006 11.9646C72.0479 12.4926 72.3229 13.1159 72.4256 13.8346L69.3676 14.3846C69.3162 13.9446 69.1256 13.5962 68.7956 13.3396C68.4656 13.0829 68.0182 12.9326 67.4536 12.8886C66.9036 12.8519 66.4599 12.9252 66.1226 13.1086C65.7926 13.2919 65.6276 13.5559 65.6276 13.9006C65.6276 14.1059 65.6972 14.2782 65.8366 14.4176C65.9832 14.5569 66.2802 14.6999 66.7276 14.8466C67.1822 14.9932 67.8716 15.1839 68.7956 15.4186C69.6976 15.6532 70.4199 15.9282 70.9626 16.2436C71.5126 16.5516 71.9122 16.9256 72.1616 17.3656C72.4109 17.7982 72.5356 18.3226 72.5356 18.9386C72.5356 20.1559 72.0956 21.1129 71.2156 21.8096C70.3356 22.5062 69.1182 22.8546 67.5636 22.8546Z" fill="#585858"/>
<path d="M82.0808 22.5246C81.2595 22.6786 80.4528 22.7446 79.6608 22.7226C78.8761 22.7079 78.1721 22.5722 77.5488 22.3156C76.9328 22.0516 76.4635 21.6299 76.1408 21.0506C75.8475 20.5079 75.6935 19.9579 75.6788 19.4006C75.6641 18.8359 75.6568 18.1979 75.6568 17.4866V7.34457H78.6488V17.3106C78.6488 17.7726 78.6525 18.1906 78.6598 18.5646C78.6745 18.9312 78.7515 19.2246 78.8908 19.4446C79.1548 19.8626 79.5765 20.0899 80.1558 20.1266C80.7351 20.1632 81.3768 20.1339 82.0808 20.0386V22.5246ZM73.6328 12.9546V10.6446H82.0808V12.9546H73.6328Z" fill="#585858"/>
<path d="M85.9239 27.8046L88.2119 21.5126L88.2559 23.3606L83.0859 10.6446H86.1879L89.6639 19.6426H88.9599L92.4139 10.6446H95.4059L88.6959 27.8046H85.9239Z" fill="#585858"/>
<path d="M105.049 22.5246V16.9146C105.049 16.6432 105.034 16.2986 105.005 15.8806C104.975 15.4552 104.884 15.0299 104.73 14.6046C104.576 14.1792 104.323 13.8236 103.971 13.5376C103.626 13.2516 103.135 13.1086 102.497 13.1086C102.24 13.1086 101.965 13.1489 101.672 13.2296C101.378 13.3102 101.103 13.4679 100.847 13.7026C100.59 13.9299 100.377 14.2672 100.209 14.7146C100.047 15.1619 99.9668 15.7559 99.9668 16.4966L98.2508 15.6826C98.2508 14.7439 98.4415 13.8639 98.8228 13.0426C99.2041 12.2212 99.7761 11.5576 100.539 11.0516C101.309 10.5456 102.277 10.2926 103.443 10.2926C104.374 10.2926 105.133 10.4502 105.72 10.7656C106.306 11.0809 106.761 11.4806 107.084 11.9646C107.414 12.4486 107.648 12.9546 107.788 13.4826C107.927 14.0032 108.011 14.4799 108.041 14.9126C108.07 15.3452 108.085 15.6606 108.085 15.8586V22.5246H105.049ZM96.9308 22.5246V6.68457H99.5928V14.8246H99.9668V22.5246H96.9308Z" fill="#585858"/>
<path d="M115.361 22.8766C114.43 22.8766 113.671 22.7189 113.084 22.4036C112.497 22.0882 112.039 21.6886 111.709 21.2046C111.386 20.7206 111.155 20.2182 111.016 19.6976C110.877 19.1696 110.792 18.6892 110.763 18.2566C110.734 17.8239 110.719 17.5086 110.719 17.3106V10.6446H113.755V16.2546C113.755 16.5259 113.77 16.8742 113.799 17.2996C113.828 17.7176 113.92 18.1392 114.074 18.5646C114.228 18.9899 114.477 19.3456 114.822 19.6316C115.174 19.9176 115.669 20.0606 116.307 20.0606C116.564 20.0606 116.839 20.0202 117.132 19.9396C117.425 19.8589 117.7 19.7049 117.957 19.4776C118.214 19.2429 118.423 18.9019 118.584 18.4546C118.753 17.9999 118.837 17.4059 118.837 16.6726L120.553 17.4866C120.553 18.4252 120.362 19.3052 119.981 20.1266C119.6 20.9479 119.024 21.6116 118.254 22.1176C117.491 22.6236 116.527 22.8766 115.361 22.8766ZM119.211 22.5246V18.5866H118.837V10.6446H121.851V22.5246H119.211Z" fill="#585858"/>
<path d="M130.755 22.8546C129.575 22.8546 128.588 22.5796 127.796 22.0296C127.004 21.4796 126.407 20.7316 126.003 19.7856C125.607 18.8396 125.409 17.7726 125.409 16.5846C125.409 15.3966 125.607 14.3296 126.003 13.3836C126.399 12.4376 126.982 11.6896 127.752 11.1396C128.522 10.5896 129.472 10.3146 130.601 10.3146C131.738 10.3146 132.728 10.5859 133.571 11.1286C134.415 11.6712 135.067 12.4156 135.529 13.3616C135.999 14.3002 136.233 15.3746 136.233 16.5846C136.233 17.7726 136.002 18.8396 135.54 19.7856C135.086 20.7316 134.448 21.4796 133.626 22.0296C132.805 22.5796 131.848 22.8546 130.755 22.8546ZM124.903 22.5246V6.68457H127.917V14.3846H127.543V22.5246H124.903ZM130.271 20.1926C130.917 20.1926 131.445 20.0312 131.855 19.7086C132.266 19.3859 132.57 18.9532 132.768 18.4106C132.966 17.8606 133.065 17.2519 133.065 16.5846C133.065 15.9246 132.963 15.3232 132.757 14.7806C132.552 14.2306 132.233 13.7942 131.8 13.4716C131.375 13.1416 130.829 12.9766 130.161 12.9766C129.538 12.9766 129.032 13.1269 128.643 13.4276C128.262 13.7282 127.983 14.1499 127.807 14.6926C127.631 15.2352 127.543 15.8659 127.543 16.5846C127.543 17.3032 127.631 17.9339 127.807 18.4766C127.983 19.0192 128.269 19.4409 128.665 19.7416C129.069 20.0422 129.604 20.1926 130.271 20.1926Z" fill="#585858"/>
<path fill-rule="evenodd" clip-rule="evenodd" d="M24.5666 7.55707L15.4979 13.0772C14.8813 13.4525 14.1105 13.4665 13.4808 13.1138L3.52641 7.53938C2.8514 7.16138 2.84288 6.19291 3.51114 5.8031L12.9923 0.272442C13.615 -0.090814 14.385 -0.0908142 15.0077 0.272442L24.5506 5.83909C25.2049 6.2208 25.2137 7.16318 24.5666 7.55707ZM16 28.9785V18.1846V17.8568C16 17.1329 16.3912 16.4655 17.0228 16.1118L27.0114 10.5182C27.678 10.1449 28.5 10.6267 28.5 11.3907V22.5123C28.5 23.2363 28.1088 23.9037 27.4772 24.2574L17.4886 29.851C16.822 30.2243 16 29.7425 16 28.9785ZM1.4886 10.5182L11.4772 16.1118C12.1088 16.4655 12.5 17.1329 12.5 17.8568V28.9785C12.5 29.7425 11.678 30.2243 11.0114 29.851L1.02279 24.2574C0.391181 23.9037 0 23.2363 0 22.5123V11.3907C0 10.6267 0.822022 10.1449 1.4886 10.5182Z" fill="#FFA451"/>
</svg>
